<svg width="279" height="48" viewBox="0 0 279 48" fill="none" xmlns="http://www.w3.org/2000/svg">
<path d="M38.28 40H21.18L26.13 11.875H34.68L30.99 32.8H39.54L38.28 40ZM19.83 39.865L0.75 37.84H20.19L19.83 39.865ZM21.36 31.18L2.28 29.155H21.72L21.36 31.18ZM22.125 26.86L3.045 24.835H22.485L22.125 26.86ZM22.89 22.54L3.81 20.515H23.25L22.89 22.54ZM23.655 18.22L4.575 16.195H23.97L23.655 18.22ZM20.595 35.5L1.515 33.475H20.955L20.595 35.5ZM24.375 13.9L5.34 11.875H24.735L24.375 13.9ZM62.8982 15.745C66.1382 15.745 68.4482 16.375 69.8282 17.635C71.2082 18.865 71.8982 20.8 71.8982 23.44C71.8982 24.73 71.7332 26.29 71.4032 28.12C70.6532 32.44 69.3332 35.59 67.4432 37.57C65.5532 39.55 62.5832 40.54 58.5332 40.54C55.3532 40.54 53.0882 39.925 51.7382 38.695C50.3882 37.435 49.7132 35.5 49.7132 32.89C49.7132 31.54 49.8782 29.95 50.2082 28.12C50.9582 23.8 52.2632 20.665 54.1232 18.715C55.9832 16.735 58.9082 15.745 62.8982 15.745ZM59.8382 33.7C60.7082 33.7 61.3532 33.595 61.7732 33.385C62.2232 33.175 62.5232 32.71 62.6732 31.99L64.3832 22.585H61.6382C60.7982 22.585 60.1382 22.69 59.6582 22.9C59.2082 23.11 58.9382 23.56 58.8482 24.25L57.1832 33.7H59.8382ZM48.6332 29.155C48.5132 30.085 48.4382 30.715 48.4082 31.045L30.6782 29.155H48.6332ZM49.4882 24.835L49.0832 26.725L31.4882 24.835H49.4882ZM48.3632 33.475C48.3632 33.955 48.4232 34.585 48.5432 35.365L30.8582 33.475H48.3632ZM51.0632 20.515C50.7032 21.295 50.4482 21.895 50.2982 22.315L33.2882 20.515H51.0632ZM49.3082 37.84C49.6682 38.56 50.0582 39.115 50.4782 39.505L34.7732 37.84H49.3082ZM54.9782 16.195C54.2582 16.615 53.6432 17.11 53.1332 17.68L39.3182 16.195H54.9782ZM101.364 38.74C98.3037 39.94 95.1837 40.54 92.0037 40.54C88.8237 40.54 86.5587 39.925 85.2087 38.695C83.8587 37.435 83.1837 35.5 83.1837 32.89C83.1837 31.6 83.3937 29.755 83.8137 27.355C84.2337 24.955 84.8787 22.9 85.7487 21.19C87.6387 17.56 91.4637 15.745 97.2237 15.745C100.584 15.745 102.924 16.075 104.244 16.735L101.949 22.99C100.059 22.57 98.3487 22.36 96.8187 22.36C95.3187 22.36 94.2537 22.465 93.6237 22.675C92.9937 22.885 92.6187 23.29 92.4987 23.89L90.6087 34.24H92.6787C93.4287 34.24 93.9987 34.165 94.3887 34.015C94.8087 33.835 95.0637 33.46 95.1537 32.89L95.4687 31.135H93.6237L94.5237 26.005H103.614L101.364 38.74ZM82.1037 29.155C81.9837 30.085 81.9087 30.715 81.8787 31.045L64.1487 29.155H82.1037ZM82.9587 24.835L82.5537 26.725L64.9587 24.835H82.9587ZM81.8337 33.475C81.8337 33.955 81.8937 34.585 82.0137 35.365L64.3287 33.475H81.8337ZM84.5337 20.515C84.1737 21.295 83.9187 21.895 83.7687 22.315L66.7587 20.515H84.5337ZM82.7787 37.84C83.1387 38.56 83.5287 39.115 83.9487 39.505L68.2437 37.84H82.7787ZM88.4487 16.195C87.7287 16.615 87.1137 17.11 86.6037 17.68L72.7887 16.195H88.4487ZM114.652 40L118.792 16.195H126.712L122.527 40H114.652ZM113.167 39.865L94.0867 37.84H113.527L113.167 39.865ZM114.697 31.18L95.6167 29.155H115.057L114.697 31.18ZM115.462 26.86L96.3817 24.835H115.822L115.462 26.86ZM116.227 22.54L97.1467 20.515H116.587L116.227 22.54ZM116.992 18.22L97.9117 16.195H117.307L116.992 18.22ZM113.932 35.5L94.8517 33.475H114.292L113.932 35.5ZM137.523 11.875V13.9L119.838 11.875H137.523ZM137.523 16.195V18.22L119.838 16.195H137.523ZM137.523 20.515V22.54L119.838 20.515H137.523ZM137.523 24.835V26.86L119.838 24.835H137.523ZM137.523 29.155V31.18L119.838 29.155H137.523ZM137.523 33.475V35.5L119.838 33.475H137.523ZM137.523 37.84V39.865L119.838 37.84H137.523ZM153.498 40V29.65H153.003L149.268 40H138.873V11.875H147.828L147.018 27.58H147.288L153.138 11.875H159.933V27.58H160.203L165.018 11.875H173.973L164.838 40H153.498ZM197.336 30.325H190.631L190.091 33.385H198.416L197.246 40H181.361L185.501 16.195H201.341L199.226 22.945H191.891L191.351 26.005H198.101L197.336 30.325ZM179.876 39.865L160.796 37.84H180.236L179.876 39.865ZM181.406 31.18L162.326 29.155H181.766L181.406 31.18ZM182.171 26.86L163.091 24.835H182.531L182.171 26.86ZM182.936 22.54L163.856 20.515H183.296L182.936 22.54ZM183.701 18.22L164.621 16.195H184.016L183.701 18.22ZM180.641 35.5L161.561 33.475H181.001L180.641 35.5ZM227.182 16.195C230.602 16.195 232.312 17.605 232.312 20.425C232.312 21.985 231.937 23.395 231.187 24.655C230.467 25.915 229.582 26.785 228.532 27.265L228.487 27.535C230.467 28.165 231.457 29.53 231.457 31.63C231.457 34.27 230.737 36.325 229.297 37.795C227.887 39.265 225.742 40 222.862 40H210.892L215.032 16.195H227.182ZM222.862 30.775H220.072L219.487 34.105H222.277C223.327 34.105 223.852 33.34 223.852 31.81C223.852 31.12 223.522 30.775 222.862 30.775ZM224.032 21.91H221.602L221.107 24.79H223.582C224.482 24.79 224.932 24.13 224.932 22.81C224.932 22.21 224.632 21.91 224.032 21.91ZM209.452 39.865L190.372 37.84H209.812L209.452 39.865ZM210.982 31.18L191.902 29.155H211.342L210.982 31.18ZM211.747 26.86L192.667 24.835H212.107L211.747 26.86ZM212.512 22.54L193.432 20.515H212.872L212.512 22.54ZM213.277 18.22L194.197 16.195H213.592L213.277 18.22ZM210.217 35.5L191.137 33.475H210.577L210.217 35.5Z" fill="#333333"/>
<path d="M255.802 3.18518C256.015 3.06383 256.255 3 256.5 3C256.745 3 256.985 3.06383 257.197 3.18518L267.744 9.21248C267.96 9.33543 268.139 9.51308 268.263 9.72744C268.387 9.94181 268.453 10.1853 268.453 10.4331V21.6693L278.291 27.2944C278.506 27.4169 278.684 27.5937 278.808 27.8069C278.933 28.0202 278.999 28.2625 279 28.5094V40.5641C279 40.8119 278.934 41.0554 278.81 41.2697C278.685 41.4841 278.506 41.6618 278.291 41.7847L267.744 47.812C267.532 47.9334 267.292 47.9972 267.047 47.9972C266.802 47.9972 266.562 47.9334 266.349 47.812L256.5 42.1869L246.651 47.8148C246.438 47.9362 246.198 48 245.953 48C245.708 48 245.468 47.9362 245.256 47.8148L234.709 41.7875C234.494 41.6646 234.315 41.4869 234.19 41.2726C234.066 41.0582 234 40.8147 234 40.5669V28.5122C234 28.2644 234.066 28.0209 234.19 27.8066C234.315 27.5922 234.494 27.4145 234.709 27.2916L244.547 21.6693V10.4331C244.547 10.1853 244.613 9.94181 244.737 9.72744C244.861 9.51308 245.04 9.33543 245.256 9.21248L255.802 3.18518ZM245.953 24.105L238.241 28.5122L245.953 32.9195L253.665 28.5122L245.953 24.105ZM255.094 30.9367L247.359 35.3552V44.1697L255.094 39.7512V30.9367ZM257.906 39.7512L265.641 44.1697V35.3552L257.906 30.9367V39.7512ZM259.335 28.5122L267.047 32.9195L274.759 28.5122L267.047 24.105L259.335 28.5122ZM265.641 21.6693V12.8547L257.906 17.2761V26.0906L265.641 21.6693ZM255.094 26.0906V17.2761L247.359 12.8547V21.6693L255.094 26.0906ZM248.788 10.4331L256.5 14.8404L264.212 10.4331L256.5 6.02586L248.788 10.4331ZM276.187 30.9367L268.453 35.3552V44.1697L276.187 39.7512V30.9367ZM244.547 44.1697V35.3552L236.812 30.9367V39.7512L244.547 44.1697Z" fill="#89542E"/>
</svg>
