<svg width="288" height="48" viewBox="0 0 288 48" fill="none" xmlns="http://www.w3.org/2000/svg">
<path d="M38.28 40H21.18L26.13 11.875H34.68L30.99 32.8H39.54L38.28 40ZM19.83 39.865L0.75 37.84H20.19L19.83 39.865ZM21.36 31.18L2.28 29.155H21.72L21.36 31.18ZM22.125 26.86L3.045 24.835H22.485L22.125 26.86ZM22.89 22.54L3.81 20.515H23.25L22.89 22.54ZM23.655 18.22L4.575 16.195H23.97L23.655 18.22ZM20.595 35.5L1.515 33.475H20.955L20.595 35.5ZM24.375 13.9L5.34 11.875H24.735L24.375 13.9ZM62.8982 15.745C66.1382 15.745 68.4482 16.375 69.8282 17.635C71.2082 18.865 71.8982 20.8 71.8982 23.44C71.8982 24.73 71.7332 26.29 71.4032 28.12C70.6532 32.44 69.3332 35.59 67.4432 37.57C65.5532 39.55 62.5832 40.54 58.5332 40.54C55.3532 40.54 53.0882 39.925 51.7382 38.695C50.3882 37.435 49.7132 35.5 49.7132 32.89C49.7132 31.54 49.8782 29.95 50.2082 28.12C50.9582 23.8 52.2632 20.665 54.1232 18.715C55.9832 16.735 58.9082 15.745 62.8982 15.745ZM59.8382 33.7C60.7082 33.7 61.3532 33.595 61.7732 33.385C62.2232 33.175 62.5232 32.71 62.6732 31.99L64.3832 22.585H61.6382C60.7982 22.585 60.1382 22.69 59.6582 22.9C59.2082 23.11 58.9382 23.56 58.8482 24.25L57.1832 33.7H59.8382ZM48.6332 29.155C48.5132 30.085 48.4382 30.715 48.4082 31.045L30.6782 29.155H48.6332ZM49.4882 24.835L49.0832 26.725L31.4882 24.835H49.4882ZM48.3632 33.475C48.3632 33.955 48.4232 34.585 48.5432 35.365L30.8582 33.475H48.3632ZM51.0632 20.515C50.7032 21.295 50.4482 21.895 50.2982 22.315L33.2882 20.515H51.0632ZM49.3082 37.84C49.6682 38.56 50.0582 39.115 50.4782 39.505L34.7732 37.84H49.3082ZM54.9782 16.195C54.2582 16.615 53.6432 17.11 53.1332 17.68L39.3182 16.195H54.9782ZM101.364 38.74C98.3037 39.94 95.1837 40.54 92.0037 40.54C88.8237 40.54 86.5587 39.925 85.2087 38.695C83.8587 37.435 83.1837 35.5 83.1837 32.89C83.1837 31.6 83.3937 29.755 83.8137 27.355C84.2337 24.955 84.8787 22.9 85.7487 21.19C87.6387 17.56 91.4637 15.745 97.2237 15.745C100.584 15.745 102.924 16.075 104.244 16.735L101.949 22.99C100.059 22.57 98.3487 22.36 96.8187 22.36C95.3187 22.36 94.2537 22.465 93.6237 22.675C92.9937 22.885 92.6187 23.29 92.4987 23.89L90.6087 34.24H92.6787C93.4287 34.24 93.9987 34.165 94.3887 34.015C94.8087 33.835 95.0637 33.46 95.1537 32.89L95.4687 31.135H93.6237L94.5237 26.005H103.614L101.364 38.74ZM82.1037 29.155C81.9837 30.085 81.9087 30.715 81.8787 31.045L64.1487 29.155H82.1037ZM82.9587 24.835L82.5537 26.725L64.9587 24.835H82.9587ZM81.8337 33.475C81.8337 33.955 81.8937 34.585 82.0137 35.365L64.3287 33.475H81.8337ZM84.5337 20.515C84.1737 21.295 83.9187 21.895 83.7687 22.315L66.7587 20.515H84.5337ZM82.7787 37.84C83.1387 38.56 83.5287 39.115 83.9487 39.505L68.2437 37.84H82.7787ZM88.4487 16.195C87.7287 16.615 87.1137 17.11 86.6037 17.68L72.7887 16.195H88.4487ZM114.652 40L118.792 16.195H126.712L122.527 40H114.652ZM113.167 39.865L94.0867 37.84H113.527L113.167 39.865ZM114.697 31.18L95.6167 29.155H115.057L114.697 31.18ZM115.462 26.86L96.3817 24.835H115.822L115.462 26.86ZM116.227 22.54L97.1467 20.515H116.587L116.227 22.54ZM116.992 18.22L97.9117 16.195H117.307L116.992 18.22ZM113.932 35.5L94.8517 33.475H114.292L113.932 35.5ZM137.523 11.875V13.9L119.838 11.875H137.523ZM137.523 16.195V18.22L119.838 16.195H137.523ZM137.523 20.515V22.54L119.838 20.515H137.523ZM137.523 24.835V26.86L119.838 24.835H137.523ZM137.523 29.155V31.18L119.838 29.155H137.523ZM137.523 33.475V35.5L119.838 33.475H137.523ZM137.523 37.84V39.865L119.838 37.84H137.523ZM153.498 40V29.65H153.003L149.268 40H138.873V11.875H147.828L147.018 27.58H147.288L153.138 11.875H159.933V27.58H160.203L165.018 11.875H173.973L164.838 40H153.498ZM197.336 30.325H190.631L190.091 33.385H198.416L197.246 40H181.361L185.501 16.195H201.341L199.226 22.945H191.891L191.351 26.005H198.101L197.336 30.325ZM179.876 39.865L160.796 37.84H180.236L179.876 39.865ZM181.406 31.18L162.326 29.155H181.766L181.406 31.18ZM182.171 26.86L163.091 24.835H182.531L182.171 26.86ZM182.936 22.54L163.856 20.515H183.296L182.936 22.54ZM183.701 18.22L164.621 16.195H184.016L183.701 18.22ZM180.641 35.5L161.561 33.475H181.001L180.641 35.5ZM227.182 16.195C230.602 16.195 232.312 17.605 232.312 20.425C232.312 21.985 231.937 23.395 231.187 24.655C230.467 25.915 229.582 26.785 228.532 27.265L228.487 27.535C230.467 28.165 231.457 29.53 231.457 31.63C231.457 34.27 230.737 36.325 229.297 37.795C227.887 39.265 225.742 40 222.862 40H210.892L215.032 16.195H227.182ZM222.862 30.775H220.072L219.487 34.105H222.277C223.327 34.105 223.852 33.34 223.852 31.81C223.852 31.12 223.522 30.775 222.862 30.775ZM224.032 21.91H221.602L221.107 24.79H223.582C224.482 24.79 224.932 24.13 224.932 22.81C224.932 22.21 224.632 21.91 224.032 21.91ZM209.452 39.865L190.372 37.84H209.812L209.452 39.865ZM210.982 31.18L191.902 29.155H211.342L210.982 31.18ZM211.747 26.86L192.667 24.835H212.107L211.747 26.86ZM212.512 22.54L193.432 20.515H212.872L212.512 22.54ZM213.277 18.22L194.197 16.195H213.592L213.277 18.22ZM210.217 35.5L191.137 33.475H210.577L210.217 35.5Z" fill="white"/>
<path d="M264.802 0.185175C265.015 0.0638268 265.255 0 265.5 0C265.745 0 265.985 0.0638268 266.197 0.185175L276.744 6.21248C276.96 6.33543 277.139 6.51308 277.263 6.72744C277.387 6.94181 277.453 7.18526 277.453 7.43313V18.6693L287.291 24.2944C287.506 24.4169 287.684 24.5937 287.808 24.8069C287.933 25.0202 287.999 25.2625 288 25.5094V37.5641C288 37.8119 287.934 38.0554 287.81 38.2697C287.685 38.4841 287.506 38.6618 287.291 38.7847L276.744 44.812C276.532 44.9334 276.292 44.9972 276.047 44.9972C275.802 44.9972 275.562 44.9334 275.349 44.812L265.5 39.1869L255.651 44.8148C255.438 44.9362 255.198 45 254.953 45C254.708 45 254.468 44.9362 254.256 44.8148L243.709 38.7875C243.494 38.6646 243.315 38.4869 243.19 38.2726C243.066 38.0582 243 37.8147 243 37.5669V25.5122C243 25.2644 243.066 25.0209 243.19 24.8066C243.315 24.5922 243.494 24.4145 243.709 24.2916L253.547 18.6693V7.43313C253.547 7.18526 253.613 6.94181 253.737 6.72744C253.861 6.51308 254.04 6.33543 254.256 6.21248L264.802 0.185175ZM254.953 21.105L247.241 25.5122L254.953 29.9195L262.665 25.5122L254.953 21.105ZM264.094 27.9367L256.359 32.3552V41.1697L264.094 36.7512V27.9367ZM266.906 36.7512L274.641 41.1697V32.3552L266.906 27.9367V36.7512ZM268.335 25.5122L276.047 29.9195L283.759 25.5122L276.047 21.105L268.335 25.5122ZM274.641 18.6693V9.85474L266.906 14.2761V23.0906L274.641 18.6693ZM264.094 23.0906V14.2761L256.359 9.85474V18.6693L264.094 23.0906ZM257.788 7.43313L265.5 11.8404L273.212 7.43313L265.5 3.02586L257.788 7.43313ZM285.187 27.9367L277.453 32.3552V41.1697L285.187 36.7512V27.9367ZM253.547 41.1697V32.3552L245.812 27.9367V36.7512L253.547 41.1697Z" fill="#FFFDFC"/>
</svg>
